<svg width="60" height="60" viewBox="0 0 60 60" fill="none" xmlns="http://www.w3.org/2000/svg">
<circle cx="30" cy="30" r="28" fill="white" stroke="#222222" stroke-width="4"/>
<path d="M32 30H28V18C28 16.8954 28.8954 16 30 16V16C31.1046 16 32 16.8954 32 18V30Z" fill="#222222"/>
<path d="M28.8388 30L30.253 31.4142L22.1213 39.5459C21.7308 39.9365 21.0976 39.9365 20.7071 39.5459V39.5459C20.3166 39.1554 20.3166 38.5223 20.7071 38.1317L28.8388 30Z" fill="#0084E4"/>
<path d="M30 32.8284L32.8284 29.9999L44.1421 41.3137C44.9232 42.0947 44.9232 43.361 44.1421 44.1421V44.1421C43.3611 44.9231 42.0948 44.9231 41.3137 44.1421L30 32.8284Z" fill="#222222"/>
<circle cx="30" cy="30" r="3" fill="#E7E7E7"/>
</svg>
