<svg width="60" height="60" viewBox="0 0 60 60" fill="none" xmlns="http://www.w3.org/2000/svg">
<circle cx="30" cy="30" r="28" fill="white" stroke="black" stroke-width="4"/>
<path d="M33 30H27V19C27 17.3431 28.3431 16 30 16V16C31.6569 16 33 17.3431 33 19V30Z" fill="black"/>
<path d="M27.8388 29L30.6672 31.8284L23.2426 39.253C22.4616 40.0341 21.1952 40.0341 20.4142 39.253V39.253C19.6331 38.472 19.6331 37.2057 20.4142 36.4246L27.8388 29Z" fill="#0084E4"/>
<path d="M30 33V27H50C51.6569 27 53 28.3431 53 30V30C53 31.6569 51.6569 33 50 33H30Z" fill="black"/>
<circle cx="30" cy="30" r="3" fill="#E7E7E7"/>
<rect x="57" y="29.5" width="3" height="1" fill="black"/>
<rect y="28.9" width="3" height="1" fill="black"/>
<rect x="29.5" y="3" width="3" height="1" transform="rotate(-90 29.5 3)" fill="black"/>
<rect x="29.5" y="60" width="3" height="1" transform="rotate(-90 29.5 60)" fill="black"/>
<rect x="43.067" y="6.36731" width="3" height="1" transform="rotate(-60 43.067 6.36731)" fill="black"/>
<rect x="14.567" y="55.7308" width="3" height="1" transform="rotate(-60 14.567 55.7308)" fill="black"/>
<rect x="4.26923" y="14.567" width="3" height="1" transform="rotate(30 4.26923 14.567)" fill="black"/>
<rect x="53.6327" y="43.0669" width="3" height="1" transform="rotate(30 53.6327 43.0669)" fill="black"/>
<rect x="53.1327" y="16.067" width="3" height="1" transform="rotate(-30 53.1327 16.067)" fill="black"/>
<rect x="3.76923" y="44.5669" width="3" height="1" transform="rotate(-30 3.76923 44.5669)" fill="black"/>
<rect x="15.433" y="3.76923" width="3" height="1" transform="rotate(60 15.433 3.76923)" fill="black"/>
<rect x="43.933" y="53.1327" width="3" height="1" transform="rotate(60 43.933 53.1327)" fill="black"/>
</svg>
